<svg width="677" height="491" viewBox="0 0 677 491" fill="none" xmlns="http://www.w3.org/2000/svg">
<circle cx="15" cy="368" r="14.5" fill="#C4C4C4" stroke="black"/>
<circle cx="135" cy="368" r="14.5" fill="#C4C4C4" stroke="black"/>
<circle cx="15" cy="445" r="14.5" fill="#C4C4C4" stroke="black"/>
<circle cx="135" cy="445" r="14.5" fill="#C4C4C4" stroke="black"/>
<circle cx="15" cy="88" r="14.5" fill="#C4C4C4" stroke="black"/>
<circle cx="135" cy="88" r="14.5" fill="#C4C4C4" stroke="black"/>
<circle cx="15" cy="165" r="14.5" fill="#C4C4C4" stroke="black"/>
<circle cx="135" cy="165" r="14.5" fill="#C4C4C4" stroke="black"/>
<circle cx="258.664" cy="114.879" r="14.5" transform="rotate(-30 258.664 114.879)" fill="#C4C4C4" stroke="black"/>
<circle cx="368.873" cy="67.4033" r="14.5" transform="rotate(-30 368.873 67.4033)" fill="#C4C4C4" stroke="black"/>
<circle cx="289.127" cy="185.597" r="14.5" transform="rotate(-30 289.127 185.597)" fill="#C4C4C4" stroke="black"/>
<circle cx="399.336" cy="138.121" r="14.5" transform="rotate(-30 399.336 138.121)" fill="#C4C4C4" stroke="black"/>
<circle cx="269" cy="368" r="14.5" fill="#C4C4C4" stroke="black"/>
<circle cx="389" cy="368" r="14.5" fill="#C4C4C4" stroke="black"/>
<circle cx="269" cy="445" r="14.5" fill="#C4C4C4" stroke="black"/>
<circle cx="389" cy="445" r="14.5" fill="#C4C4C4" stroke="black"/>
<rect x="254.5" y="353.5" width="149" height="106" stroke="black"/>
<circle cx="513.788" cy="403.158" r="15" transform="rotate(-30 513.788 403.158)" fill="#C4C4C4"/>
<circle cx="513.788" cy="403.158" r="14.5" transform="rotate(-30 513.788 403.158)" stroke="black" stroke-opacity="0.3"/>
<circle cx="617.712" cy="343.158" r="15" transform="rotate(-30 617.712 343.158)" fill="#C4C4C4"/>
<circle cx="617.712" cy="343.158" r="14.5" transform="rotate(-30 617.712 343.158)" stroke="black" stroke-opacity="0.3"/>
<circle cx="552.288" cy="469.842" r="15" transform="rotate(-30 552.288 469.842)" fill="#C4C4C4"/>
<circle cx="552.288" cy="469.842" r="14.5" transform="rotate(-30 552.288 469.842)" stroke="black" stroke-opacity="0.3"/>
<circle cx="656.212" cy="409.842" r="15" transform="rotate(-30 656.212 409.842)" fill="#C4C4C4"/>
<circle cx="656.212" cy="409.842" r="14.5" transform="rotate(-30 656.212 409.842)" stroke="black" stroke-opacity="0.3"/>
<rect x="493.981" y="397.851" width="149" height="106" transform="rotate(-30 493.981 397.851)" stroke="black" stroke-opacity="0.3"/>
<rect x="493.5" y="323.5" width="183" height="166" stroke="black"/>
<rect x="244.164" y="100.379" width="29" height="29" stroke="black"/>
<rect x="274.627" y="171.097" width="29" height="29" stroke="black"/>
<rect x="384.836" y="123.621" width="29" height="29" stroke="black"/>
<rect x="354.373" y="52.9033" width="29" height="29" stroke="black"/>
<circle cx="513.308" cy="114.879" r="14.5" transform="rotate(-30 513.308 114.879)" fill="#C4C4C4" stroke="black"/>
<circle cx="623.517" cy="67.4033" r="14.5" transform="rotate(-30 623.517 67.4033)" fill="#C4C4C4" stroke="black"/>
<circle cx="543.772" cy="185.597" r="14.5" transform="rotate(-30 543.772 185.597)" fill="#C4C4C4" stroke="black"/>
<circle cx="653.981" cy="138.121" r="14.5" transform="rotate(-30 653.981 138.121)" fill="#C4C4C4" stroke="black"/>
<rect x="498.808" y="100.379" width="29" height="29" stroke="black" stroke-opacity="0.3"/>
<rect x="529.272" y="171.097" width="29" height="29" stroke="black" stroke-opacity="0.3"/>
<rect x="639.481" y="123.621" width="29" height="29" stroke="black" stroke-opacity="0.3"/>
<rect x="609.017" y="52.9033" width="29" height="29" stroke="black" stroke-opacity="0.3"/>
<rect x="498.808" y="52.9033" width="170.474" height="147.193" stroke="black"/>
<path d="M159.281 280.351C159.281 281.804 158.947 282.973 158.279 283.857C157.611 284.736 156.715 285.176 155.59 285.176C154.389 285.176 153.46 284.751 152.804 283.901L152.725 285H151.23V271.5H152.856V276.536C153.513 275.722 154.418 275.314 155.572 275.314C156.727 275.314 157.632 275.751 158.288 276.624C158.95 277.497 159.281 278.692 159.281 280.21V280.351ZM157.655 280.166C157.655 279.059 157.441 278.203 157.014 277.6C156.586 276.996 155.971 276.694 155.168 276.694C154.096 276.694 153.325 277.192 152.856 278.188V282.302C153.354 283.298 154.131 283.796 155.186 283.796C155.965 283.796 156.571 283.494 157.005 282.891C157.438 282.287 157.655 281.379 157.655 280.166ZM160.907 280.157C160.907 279.226 161.089 278.388 161.452 277.644C161.821 276.899 162.331 276.325 162.981 275.921C163.638 275.517 164.385 275.314 165.223 275.314C166.518 275.314 167.563 275.763 168.36 276.659C169.163 277.556 169.564 278.748 169.564 280.236V280.351C169.564 281.276 169.386 282.108 169.028 282.847C168.677 283.579 168.17 284.15 167.508 284.561C166.852 284.971 166.096 285.176 165.24 285.176C163.951 285.176 162.905 284.728 162.103 283.831C161.306 282.935 160.907 281.748 160.907 280.271V280.157ZM162.542 280.351C162.542 281.405 162.785 282.252 163.271 282.891C163.764 283.529 164.42 283.849 165.24 283.849C166.066 283.849 166.723 283.526 167.209 282.882C167.695 282.231 167.938 281.323 167.938 280.157C167.938 279.114 167.689 278.271 167.191 277.626C166.699 276.976 166.043 276.65 165.223 276.65C164.42 276.65 163.772 276.97 163.28 277.608C162.788 278.247 162.542 279.161 162.542 280.351ZM177.475 284.06C176.842 284.804 175.913 285.176 174.688 285.176C173.675 285.176 172.901 284.883 172.368 284.297C171.841 283.705 171.574 282.832 171.568 281.678V275.49H173.194V281.634C173.194 283.075 173.78 283.796 174.952 283.796C176.194 283.796 177.021 283.333 177.431 282.407V275.49H179.057V285H177.51L177.475 284.06ZM183.073 275.49L183.126 276.686C183.853 275.771 184.802 275.314 185.974 275.314C187.983 275.314 188.997 276.448 189.015 278.716V285H187.389V278.707C187.383 278.021 187.225 277.515 186.914 277.187C186.609 276.858 186.132 276.694 185.481 276.694C184.954 276.694 184.491 276.835 184.093 277.116C183.694 277.397 183.384 277.767 183.161 278.224V285H181.535V275.49H183.073ZM191.071 280.166C191.071 278.707 191.417 277.535 192.108 276.65C192.8 275.76 193.705 275.314 194.824 275.314C195.938 275.314 196.819 275.695 197.47 276.457V271.5H199.096V285H197.602L197.522 283.98C196.872 284.777 195.967 285.176 194.807 285.176C193.705 285.176 192.806 284.725 192.108 283.822C191.417 282.92 191.071 281.742 191.071 280.289V280.166ZM192.697 280.351C192.697 281.429 192.92 282.272 193.365 282.882C193.811 283.491 194.426 283.796 195.211 283.796C196.242 283.796 196.995 283.333 197.47 282.407V278.039C196.983 277.143 196.236 276.694 195.229 276.694C194.432 276.694 193.811 277.002 193.365 277.617C192.92 278.232 192.697 279.144 192.697 280.351ZM203.394 285H201.768V275.49H203.394V285ZM201.636 272.968C201.636 272.704 201.715 272.481 201.873 272.3C202.037 272.118 202.277 272.027 202.594 272.027C202.91 272.027 203.15 272.118 203.314 272.3C203.479 272.481 203.561 272.704 203.561 272.968C203.561 273.231 203.479 273.451 203.314 273.627C203.15 273.803 202.91 273.891 202.594 273.891C202.277 273.891 202.037 273.803 201.873 273.627C201.715 273.451 201.636 273.231 201.636 272.968ZM207.542 275.49L207.595 276.686C208.321 275.771 209.271 275.314 210.442 275.314C212.452 275.314 213.466 276.448 213.483 278.716V285H211.857V278.707C211.852 278.021 211.693 277.515 211.383 277.187C211.078 276.858 210.601 276.694 209.95 276.694C209.423 276.694 208.96 276.835 208.562 277.116C208.163 277.397 207.853 277.767 207.63 278.224V285H206.004V275.49H207.542ZM215.549 280.166C215.549 278.684 215.892 277.506 216.577 276.633C217.263 275.754 218.171 275.314 219.302 275.314C220.462 275.314 221.367 275.725 222.018 276.545L222.097 275.49H223.582V284.771C223.582 286.002 223.216 286.972 222.483 287.681C221.757 288.39 220.778 288.744 219.548 288.744C218.862 288.744 218.191 288.598 217.535 288.305C216.879 288.012 216.378 287.61 216.032 287.101L216.876 286.125C217.573 286.986 218.426 287.417 219.434 287.417C220.225 287.417 220.84 287.194 221.279 286.749C221.725 286.304 221.947 285.677 221.947 284.868V284.051C221.297 284.801 220.409 285.176 219.284 285.176C218.171 285.176 217.269 284.728 216.577 283.831C215.892 282.935 215.549 281.713 215.549 280.166ZM217.184 280.351C217.184 281.423 217.403 282.267 217.843 282.882C218.282 283.491 218.897 283.796 219.688 283.796C220.714 283.796 221.467 283.33 221.947 282.398V278.057C221.449 277.148 220.702 276.694 219.706 276.694C218.915 276.694 218.297 277.002 217.852 277.617C217.406 278.232 217.184 279.144 217.184 280.351ZM238.559 280.351C238.559 281.804 238.225 282.973 237.557 283.857C236.889 284.736 235.992 285.176 234.867 285.176C233.666 285.176 232.737 284.751 232.081 283.901L232.002 285H230.508V271.5H232.134V276.536C232.79 275.722 233.695 275.314 234.85 275.314C236.004 275.314 236.909 275.751 237.565 276.624C238.228 277.497 238.559 278.692 238.559 280.21V280.351ZM236.933 280.166C236.933 279.059 236.719 278.203 236.291 277.6C235.863 276.996 235.248 276.694 234.445 276.694C233.373 276.694 232.603 277.192 232.134 278.188V282.302C232.632 283.298 233.408 283.796 234.463 283.796C235.242 283.796 235.849 283.494 236.282 282.891C236.716 282.287 236.933 281.379 236.933 280.166ZM240.185 280.157C240.185 279.226 240.366 278.388 240.729 277.644C241.099 276.899 241.608 276.325 242.259 275.921C242.915 275.517 243.662 275.314 244.5 275.314C245.795 275.314 246.841 275.763 247.638 276.659C248.44 277.556 248.842 278.748 248.842 280.236V280.351C248.842 281.276 248.663 282.108 248.306 282.847C247.954 283.579 247.447 284.15 246.785 284.561C246.129 284.971 245.373 285.176 244.518 285.176C243.229 285.176 242.183 284.728 241.38 283.831C240.583 282.935 240.185 281.748 240.185 280.271V280.157ZM241.819 280.351C241.819 281.405 242.062 282.252 242.549 282.891C243.041 283.529 243.697 283.849 244.518 283.849C245.344 283.849 246 283.526 246.486 282.882C246.973 282.231 247.216 281.323 247.216 280.157C247.216 279.114 246.967 278.271 246.469 277.626C245.977 276.976 245.32 276.65 244.5 276.65C243.697 276.65 243.05 276.97 242.558 277.608C242.065 278.247 241.819 279.161 241.819 280.351ZM253.878 278.962L255.987 275.49H257.886L254.774 280.192L257.982 285H256.102L253.904 281.44L251.707 285H249.817L253.025 280.192L249.914 275.49H251.795L253.878 278.962Z" fill="black"/>
<path d="M414.683 10.2112C414.683 11.6643 414.349 12.8333 413.681 13.718C413.013 14.5969 412.117 15.0364 410.992 15.0364C409.79 15.0364 408.862 14.6116 408.205 13.762L408.126 14.8606H406.632V1.3606H408.258V6.39673C408.914 5.58228 409.82 5.17505 410.974 5.17505C412.128 5.17505 413.034 5.61157 413.69 6.48462C414.352 7.35767 414.683 8.55298 414.683 10.0706V10.2112ZM413.057 10.0266C413.057 8.91919 412.843 8.06372 412.415 7.46021C411.988 6.85669 411.372 6.55493 410.57 6.55493C409.497 6.55493 408.727 7.05298 408.258 8.04907V12.1624C408.756 13.1584 409.533 13.6565 410.587 13.6565C411.367 13.6565 411.973 13.3547 412.407 12.7512C412.84 12.1477 413.057 11.2395 413.057 10.0266ZM416.309 10.0178C416.309 9.08618 416.491 8.24829 416.854 7.50415C417.223 6.76001 417.733 6.18579 418.383 5.78149C419.039 5.3772 419.787 5.17505 420.624 5.17505C421.919 5.17505 422.965 5.62329 423.762 6.51978C424.565 7.41626 424.966 8.60864 424.966 10.0969V10.2112C424.966 11.137 424.787 11.969 424.43 12.7073C424.079 13.4397 423.572 14.011 422.91 14.4211C422.253 14.8313 421.497 15.0364 420.642 15.0364C419.353 15.0364 418.307 14.5881 417.504 13.6917C416.707 12.7952 416.309 11.6086 416.309 10.1321V10.0178ZM417.944 10.2112C417.944 11.2659 418.187 12.1125 418.673 12.7512C419.165 13.3899 419.822 13.7092 420.642 13.7092C421.468 13.7092 422.124 13.387 422.611 12.7424C423.097 12.092 423.34 11.1838 423.34 10.0178C423.34 8.97485 423.091 8.1311 422.593 7.48657C422.101 6.83618 421.445 6.51099 420.624 6.51099C419.822 6.51099 419.174 6.83032 418.682 7.46899C418.19 8.10767 417.944 9.02173 417.944 10.2112ZM432.876 13.9202C432.244 14.6643 431.315 15.0364 430.09 15.0364C429.077 15.0364 428.303 14.7434 427.77 14.1575C427.243 13.5657 426.976 12.6926 426.97 11.5383V5.35083H428.596V11.4944C428.596 12.9358 429.182 13.6565 430.354 13.6565C431.596 13.6565 432.422 13.1936 432.832 12.2678V5.35083H434.458V14.8606H432.912L432.876 13.9202ZM438.475 5.35083L438.528 6.54614C439.254 5.63208 440.204 5.17505 441.375 5.17505C443.385 5.17505 444.399 6.30884 444.416 8.57642V14.8606H442.79V8.56763C442.785 7.88208 442.626 7.37524 442.316 7.04712C442.011 6.71899 441.534 6.55493 440.883 6.55493C440.356 6.55493 439.893 6.69556 439.495 6.97681C439.096 7.25806 438.786 7.6272 438.563 8.08423V14.8606H436.937V5.35083H438.475ZM446.473 10.0266C446.473 8.56763 446.819 7.39575 447.51 6.51099C448.202 5.62036 449.107 5.17505 450.226 5.17505C451.339 5.17505 452.221 5.55591 452.871 6.31763V1.3606H454.497V14.8606H453.003L452.924 13.8411C452.274 14.6379 451.369 15.0364 450.208 15.0364C449.107 15.0364 448.207 14.5852 447.51 13.6829C446.819 12.7805 446.473 11.6028 446.473 10.1497V10.0266ZM448.099 10.2112C448.099 11.2893 448.322 12.1331 448.767 12.7424C449.212 13.3518 449.828 13.6565 450.613 13.6565C451.644 13.6565 452.397 13.1936 452.871 12.2678V7.89966C452.385 7.00317 451.638 6.55493 450.63 6.55493C449.833 6.55493 449.212 6.86255 448.767 7.47778C448.322 8.09302 448.099 9.00415 448.099 10.2112ZM458.795 14.8606H457.169V5.35083H458.795V14.8606ZM457.037 2.82837C457.037 2.5647 457.117 2.34204 457.275 2.1604C457.439 1.97876 457.679 1.88794 457.996 1.88794C458.312 1.88794 458.552 1.97876 458.716 2.1604C458.88 2.34204 458.962 2.5647 458.962 2.82837C458.962 3.09204 458.88 3.31177 458.716 3.48755C458.552 3.66333 458.312 3.75122 457.996 3.75122C457.679 3.75122 457.439 3.66333 457.275 3.48755C457.117 3.31177 457.037 3.09204 457.037 2.82837ZM462.944 5.35083L462.996 6.54614C463.723 5.63208 464.672 5.17505 465.844 5.17505C467.854 5.17505 468.868 6.30884 468.885 8.57642V14.8606H467.259V8.56763C467.253 7.88208 467.095 7.37524 466.785 7.04712C466.48 6.71899 466.002 6.55493 465.352 6.55493C464.825 6.55493 464.362 6.69556 463.963 6.97681C463.565 7.25806 463.254 7.6272 463.032 8.08423V14.8606H461.406V5.35083H462.944ZM470.951 10.0266C470.951 8.54419 471.293 7.36646 471.979 6.49341C472.664 5.6145 473.573 5.17505 474.704 5.17505C475.864 5.17505 476.769 5.58521 477.419 6.40552L477.498 5.35083H478.984V14.6321C478.984 15.8625 478.618 16.8323 477.885 17.5413C477.159 18.2502 476.18 18.6047 474.95 18.6047C474.264 18.6047 473.593 18.4583 472.937 18.1653C472.281 17.8723 471.78 17.4709 471.434 16.9612L472.278 15.9856C472.975 16.8469 473.828 17.2776 474.835 17.2776C475.626 17.2776 476.242 17.0549 476.681 16.6096C477.126 16.1643 477.349 15.5374 477.349 14.7288V13.9114C476.699 14.6614 475.811 15.0364 474.686 15.0364C473.573 15.0364 472.67 14.5881 471.979 13.6917C471.293 12.7952 470.951 11.5735 470.951 10.0266ZM472.585 10.2112C472.585 11.2834 472.805 12.1272 473.245 12.7424C473.684 13.3518 474.299 13.6565 475.09 13.6565C476.116 13.6565 476.869 13.1907 477.349 12.259V7.91724C476.851 7.00903 476.104 6.55493 475.108 6.55493C474.317 6.55493 473.699 6.86255 473.253 7.47778C472.808 8.09302 472.585 9.00415 472.585 10.2112ZM493.96 10.2112C493.96 11.6643 493.626 12.8333 492.958 13.718C492.29 14.5969 491.394 15.0364 490.269 15.0364C489.068 15.0364 488.139 14.6116 487.483 13.762L487.404 14.8606H485.91V1.3606H487.536V6.39673C488.192 5.58228 489.097 5.17505 490.251 5.17505C491.406 5.17505 492.311 5.61157 492.967 6.48462C493.629 7.35767 493.96 8.55298 493.96 10.0706V10.2112ZM492.334 10.0266C492.334 8.91919 492.121 8.06372 491.693 7.46021C491.265 6.85669 490.65 6.55493 489.847 6.55493C488.775 6.55493 488.004 7.05298 487.536 8.04907V12.1624C488.034 13.1584 488.81 13.6565 489.865 13.6565C490.644 13.6565 491.25 13.3547 491.684 12.7512C492.118 12.1477 492.334 11.2395 492.334 10.0266ZM495.586 10.0178C495.586 9.08618 495.768 8.24829 496.131 7.50415C496.5 6.76001 497.01 6.18579 497.661 5.78149C498.317 5.3772 499.064 5.17505 499.902 5.17505C501.197 5.17505 502.243 5.62329 503.039 6.51978C503.842 7.41626 504.244 8.60864 504.244 10.0969V10.2112C504.244 11.137 504.065 11.969 503.707 12.7073C503.356 13.4397 502.849 14.011 502.187 14.4211C501.531 14.8313 500.775 15.0364 499.919 15.0364C498.63 15.0364 497.584 14.5881 496.782 13.6917C495.985 12.7952 495.586 11.6086 495.586 10.1321V10.0178ZM497.221 10.2112C497.221 11.2659 497.464 12.1125 497.951 12.7512C498.443 13.3899 499.099 13.7092 499.919 13.7092C500.746 13.7092 501.402 13.387 501.888 12.7424C502.374 12.092 502.618 11.1838 502.618 10.0178C502.618 8.97485 502.369 8.1311 501.871 7.48657C501.378 6.83618 500.722 6.51099 499.902 6.51099C499.099 6.51099 498.452 6.83032 497.959 7.46899C497.467 8.10767 497.221 9.02173 497.221 10.2112ZM509.28 8.82251L511.389 5.35083H513.287L510.176 10.053L513.384 14.8606H511.503L509.306 11.301L507.109 14.8606H505.219L508.427 10.053L505.316 5.35083H507.197L509.28 8.82251Z" fill="black"/>
<path d="M186.104 4.30981C185.858 4.2688 185.591 4.24829 185.304 4.24829C184.238 4.24829 183.514 4.70239 183.133 5.6106V12.3606H181.507V2.85083H183.089L183.116 3.94946C183.649 3.09985 184.405 2.67505 185.383 2.67505C185.7 2.67505 185.94 2.71606 186.104 2.7981V4.30981ZM187.001 7.51782C187.001 6.58618 187.182 5.74829 187.545 5.00415C187.915 4.26001 188.424 3.68579 189.075 3.28149C189.731 2.8772 190.478 2.67505 191.316 2.67505C192.611 2.67505 193.657 3.12329 194.454 4.01978C195.256 4.91626 195.658 6.10864 195.658 7.59692V7.71118C195.658 8.63696 195.479 9.46899 195.122 10.2073C194.77 10.9397 194.263 11.511 193.601 11.9211C192.945 12.3313 192.189 12.5364 191.334 12.5364C190.044 12.5364 188.999 12.0881 188.196 11.1917C187.399 10.2952 187.001 9.10864 187.001 7.63208V7.51782ZM188.635 7.71118C188.635 8.76587 188.878 9.61255 189.365 10.2512C189.857 10.8899 190.513 11.2092 191.334 11.2092C192.16 11.2092 192.816 10.887 193.302 10.2424C193.789 9.59204 194.032 8.68384 194.032 7.51782C194.032 6.47485 193.783 5.6311 193.285 4.98657C192.793 4.33618 192.136 4.01099 191.316 4.01099C190.513 4.01099 189.866 4.33032 189.374 4.96899C188.881 5.60767 188.635 6.52173 188.635 7.71118ZM199.903 0.548096V2.85083H201.678V4.10767H199.903V10.0051C199.903 10.386 199.982 10.6731 200.14 10.8665C200.298 11.054 200.568 11.1477 200.949 11.1477C201.136 11.1477 201.394 11.1125 201.722 11.0422V12.3606C201.294 12.4778 200.878 12.5364 200.474 12.5364C199.748 12.5364 199.2 12.3167 198.831 11.8772C198.461 11.4377 198.277 10.8137 198.277 10.0051V4.10767H196.545V2.85083H198.277V0.548096H199.903ZM209.457 12.3606C209.363 12.1731 209.287 11.8391 209.228 11.3586C208.472 12.1438 207.57 12.5364 206.521 12.5364C205.584 12.5364 204.813 12.2727 204.21 11.7454C203.612 11.2122 203.313 10.5383 203.313 9.72388C203.313 8.73364 203.688 7.96606 204.438 7.42114C205.194 6.87036 206.254 6.59497 207.62 6.59497H209.202V5.8479C209.202 5.27954 209.032 4.82837 208.692 4.49438C208.352 4.15454 207.851 3.98462 207.189 3.98462C206.609 3.98462 206.123 4.1311 205.73 4.42407C205.337 4.71704 205.141 5.07153 205.141 5.48755H203.506C203.506 5.01294 203.673 4.55591 204.007 4.11646C204.347 3.67114 204.804 3.31958 205.378 3.06177C205.959 2.80396 206.594 2.67505 207.286 2.67505C208.381 2.67505 209.24 2.95044 209.861 3.50122C210.482 4.04614 210.804 4.79907 210.828 5.76001V10.137C210.828 11.01 210.939 11.7043 211.162 12.22V12.3606H209.457ZM206.758 11.1213C207.268 11.1213 207.752 10.9895 208.209 10.7258C208.666 10.4622 208.997 10.1194 209.202 9.69751V7.74634H207.927C205.935 7.74634 204.939 8.32935 204.939 9.49536C204.939 10.0051 205.109 10.4036 205.449 10.6907C205.789 10.9778 206.225 11.1213 206.758 11.1213ZM215.583 0.548096V2.85083H217.358V4.10767H215.583V10.0051C215.583 10.386 215.662 10.6731 215.82 10.8665C215.978 11.054 216.248 11.1477 216.628 11.1477C216.816 11.1477 217.074 11.1125 217.402 11.0422V12.3606C216.974 12.4778 216.558 12.5364 216.154 12.5364C215.427 12.5364 214.879 12.3167 214.51 11.8772C214.141 11.4377 213.957 10.8137 213.957 10.0051V4.10767H212.225V2.85083H213.957V0.548096H215.583ZM223.211 12.5364C221.922 12.5364 220.874 12.1145 220.065 11.2708C219.256 10.4211 218.852 9.28735 218.852 7.86938V7.57056C218.852 6.6272 219.031 5.78638 219.388 5.0481C219.752 4.30396 220.255 3.72388 220.9 3.30786C221.55 2.88599 222.253 2.67505 223.009 2.67505C224.246 2.67505 225.207 3.08228 225.892 3.89673C226.578 4.71118 226.92 5.8772 226.92 7.39478V8.07153H220.478C220.502 9.00903 220.774 9.76782 221.295 10.3479C221.823 10.9221 222.491 11.2092 223.299 11.2092C223.874 11.2092 224.36 11.092 224.758 10.8577C225.157 10.6233 225.505 10.3127 225.804 9.92603L226.797 10.6995C226.001 11.9241 224.805 12.5364 223.211 12.5364ZM223.009 4.01099C222.353 4.01099 221.802 4.25122 221.357 4.73169C220.912 5.2063 220.636 5.87427 220.531 6.7356H225.294V6.61255C225.248 5.78638 225.025 5.14771 224.627 4.69653C224.228 4.2395 223.689 4.01099 223.009 4.01099Z" fill="black"/>
<path d="M440.936 279.449C440.69 279.408 440.423 279.388 440.136 279.388C439.069 279.388 438.346 279.842 437.965 280.75V287.5H436.339V277.99H437.921L437.947 279.089C438.481 278.239 439.236 277.814 440.215 277.814C440.531 277.814 440.772 277.855 440.936 277.938V279.449ZM441.832 282.657C441.832 281.726 442.014 280.888 442.377 280.144C442.746 279.399 443.256 278.825 443.906 278.421C444.563 278.017 445.31 277.814 446.148 277.814C447.442 277.814 448.488 278.263 449.285 279.159C450.088 280.056 450.489 281.248 450.489 282.736V282.851C450.489 283.776 450.311 284.608 449.953 285.347C449.602 286.079 449.095 286.65 448.433 287.061C447.776 287.471 447.021 287.676 446.165 287.676C444.876 287.676 443.83 287.228 443.027 286.331C442.231 285.435 441.832 284.248 441.832 282.771V282.657ZM443.467 282.851C443.467 283.905 443.71 284.752 444.196 285.391C444.689 286.029 445.345 286.349 446.165 286.349C446.991 286.349 447.648 286.026 448.134 285.382C448.62 284.731 448.863 283.823 448.863 282.657C448.863 281.614 448.614 280.771 448.116 280.126C447.624 279.476 446.968 279.15 446.148 279.15C445.345 279.15 444.697 279.47 444.205 280.108C443.713 280.747 443.467 281.661 443.467 282.851ZM454.734 275.688V277.99H456.51V279.247H454.734V285.145C454.734 285.525 454.814 285.812 454.972 286.006C455.13 286.193 455.4 286.287 455.78 286.287C455.968 286.287 456.226 286.252 456.554 286.182V287.5C456.126 287.617 455.71 287.676 455.306 287.676C454.579 287.676 454.031 287.456 453.662 287.017C453.293 286.577 453.108 285.953 453.108 285.145V279.247H451.377V277.99H453.108V275.688H454.734ZM464.288 287.5C464.194 287.312 464.118 286.979 464.06 286.498C463.304 287.283 462.401 287.676 461.353 287.676C460.415 287.676 459.645 287.412 459.041 286.885C458.443 286.352 458.145 285.678 458.145 284.863C458.145 283.873 458.52 283.105 459.27 282.561C460.025 282.01 461.086 281.734 462.451 281.734H464.033V280.987C464.033 280.419 463.863 279.968 463.524 279.634C463.184 279.294 462.683 279.124 462.021 279.124C461.441 279.124 460.954 279.271 460.562 279.563C460.169 279.856 459.973 280.211 459.973 280.627H458.338C458.338 280.152 458.505 279.695 458.839 279.256C459.179 278.811 459.636 278.459 460.21 278.201C460.79 277.943 461.426 277.814 462.117 277.814C463.213 277.814 464.071 278.09 464.692 278.641C465.314 279.186 465.636 279.938 465.659 280.899V285.276C465.659 286.149 465.771 286.844 465.993 287.359V287.5H464.288ZM461.59 286.261C462.1 286.261 462.583 286.129 463.04 285.865C463.497 285.602 463.828 285.259 464.033 284.837V282.886H462.759C460.767 282.886 459.771 283.469 459.771 284.635C459.771 285.145 459.941 285.543 460.28 285.83C460.62 286.117 461.057 286.261 461.59 286.261ZM470.414 275.688V277.99H472.19V279.247H470.414V285.145C470.414 285.525 470.493 285.812 470.651 286.006C470.81 286.193 471.079 286.287 471.46 286.287C471.648 286.287 471.905 286.252 472.233 286.182V287.5C471.806 287.617 471.39 287.676 470.985 287.676C470.259 287.676 469.711 287.456 469.342 287.017C468.973 286.577 468.788 285.953 468.788 285.145V279.247H467.057V277.99H468.788V275.688H470.414ZM478.043 287.676C476.754 287.676 475.705 287.254 474.897 286.41C474.088 285.561 473.684 284.427 473.684 283.009V282.71C473.684 281.767 473.862 280.926 474.22 280.188C474.583 279.443 475.087 278.863 475.732 278.447C476.382 278.025 477.085 277.814 477.841 277.814C479.077 277.814 480.038 278.222 480.724 279.036C481.409 279.851 481.752 281.017 481.752 282.534V283.211H475.31C475.333 284.148 475.606 284.907 476.127 285.487C476.654 286.062 477.322 286.349 478.131 286.349C478.705 286.349 479.191 286.231 479.59 285.997C479.988 285.763 480.337 285.452 480.636 285.065L481.629 285.839C480.832 287.063 479.637 287.676 478.043 287.676ZM477.841 279.15C477.185 279.15 476.634 279.391 476.189 279.871C475.743 280.346 475.468 281.014 475.362 281.875H480.126V281.752C480.079 280.926 479.857 280.287 479.458 279.836C479.06 279.379 478.521 279.15 477.841 279.15Z" fill="black"/>
<path d="M259.017 33.3535C259.212 33.1583 259.212 32.8417 259.017 32.6464L255.835 29.4645C255.64 29.2692 255.323 29.2692 255.128 29.4645C254.933 29.6597 254.933 29.9763 255.128 30.1716L257.957 33L255.128 35.8284C254.933 36.0237 254.933 36.3403 255.128 36.5355C255.323 36.7308 255.64 36.7308 255.835 36.5355L259.017 33.3535ZM150 33.5L258.664 33.5L258.664 32.5L150 32.5L150 33.5Z" fill="black"/>
<path d="M510.794 33.3535C510.989 33.1583 510.989 32.8417 510.794 32.6464L507.612 29.4645C507.417 29.2692 507.1 29.2692 506.905 29.4645C506.71 29.6597 506.71 29.9763 506.905 30.1716L509.733 33L506.905 35.8284C506.71 36.0237 506.71 36.3403 506.905 36.5355C507.1 36.7308 507.417 36.7308 507.612 36.5355L510.794 33.3535ZM401.777 33.5L510.44 33.5L510.44 32.5L401.777 32.5L401.777 33.5Z" fill="black"/>
<path d="M510.794 299.854C510.989 299.658 510.989 299.342 510.794 299.146L507.612 295.964C507.417 295.769 507.1 295.769 506.905 295.964C506.71 296.16 506.71 296.476 506.905 296.672L509.733 299.5L506.905 302.328C506.71 302.524 506.71 302.84 506.905 303.036C507.1 303.231 507.417 303.231 507.612 303.036L510.794 299.854ZM401.777 300L510.44 300L510.44 299L401.777 299L401.777 300Z" fill="black"/>
<path d="M259.017 299.854C259.212 299.658 259.212 299.342 259.017 299.146L255.835 295.964C255.64 295.769 255.323 295.769 255.128 295.964C254.933 296.16 254.933 296.476 255.128 296.672L257.957 299.5L255.128 302.328C254.933 302.524 254.933 302.84 255.128 303.036C255.323 303.231 255.64 303.231 255.835 303.036L259.017 299.854ZM150 300L258.664 300L258.664 299L150 299L150 300Z" fill="black"/>
</svg>
