<svg width="320" height="108" viewBox="0 0 320 108" fill="none" xmlns="http://www.w3.org/2000/svg">
<path d="M2.61164 103.685C2.43771 103.9 2.47059 104.214 2.68508 104.388L6.18035 107.223C6.39484 107.397 6.70971 107.364 6.88363 107.149C7.05756 106.935 7.02467 106.62 6.81019 106.446L3.70328 103.927L6.22264 100.82C6.39656 100.605 6.36368 100.29 6.14919 100.116C5.9347 99.9424 5.61983 99.9753 5.44591 100.19L2.61164 103.685ZM319.388 71.3149C319.562 71.1004 319.529 70.7856 319.315 70.6116L315.82 67.7774C315.605 67.6034 315.29 67.6363 315.116 67.8508C314.942 68.0653 314.975 68.3802 315.19 68.5541L318.297 71.0734L315.777 74.1803C315.603 74.3948 315.636 74.7097 315.851 74.8836C316.065 75.0576 316.38 75.0247 316.554 74.8102L319.388 71.3149ZM3.05193 104.497L319.052 71.4973L318.948 70.5027L2.94807 103.503L3.05193 104.497Z" fill="black"/>
<path d="M1 87L317 54" stroke="black"/>
<path d="M3 84C64 -24 247 -17 317 51" stroke="black"/>
<path d="M142.317 5.61354C142.104 5.43833 141.789 5.46932 141.614 5.68275L138.758 9.16093C138.583 9.37437 138.614 9.68943 138.828 9.86464C139.041 10.0399 139.356 10.0089 139.531 9.79542L142.069 6.70371L145.161 9.24168C145.374 9.41689 145.689 9.38591 145.865 9.17247C146.04 8.95903 146.009 8.64397 145.795 8.46876L142.317 5.61354ZM147.683 67.3865C147.896 67.5617 148.211 67.5307 148.386 67.3172L151.242 63.8391C151.417 63.6256 151.386 63.3106 151.172 63.1354C150.959 62.9601 150.644 62.9911 150.469 63.2046L147.931 66.2963L144.839 63.7583C144.626 63.5831 144.311 63.6141 144.135 63.8275C143.96 64.041 143.991 64.356 144.205 64.5312L147.683 67.3865ZM141.502 6.04894L147.502 67.0489L148.498 66.9511L142.498 5.95106L141.502 6.04894Z" fill="black"/>
<path d="M153.678 22.2031H155.172L160.261 35H148.272L153.678 22.2031ZM150.575 33.6201H157.993L154.398 24.2686L150.575 33.6201ZM164.594 32.6182L166.809 25.4902H168.549L164.726 36.4678C164.134 38.0498 163.193 38.8408 161.904 38.8408L161.597 38.8145L160.99 38.7002V37.3818L161.43 37.417C161.98 37.417 162.408 37.3057 162.713 37.083C163.023 36.8604 163.278 36.4531 163.478 35.8613L163.838 34.8945L160.445 25.4902H162.221L164.594 32.6182Z" fill="black"/>
<path d="M190.678 91.2031H192.172L197.261 104H185.272L190.678 91.2031ZM187.575 102.62H194.993L191.398 93.2686L187.575 102.62ZM204.459 101.478C204.459 101.038 204.292 100.698 203.958 100.458C203.63 100.212 203.053 100.001 202.227 99.8252C201.406 99.6494 200.753 99.4385 200.267 99.1924C199.786 98.9463 199.429 98.6533 199.194 98.3135C198.966 97.9736 198.852 97.5693 198.852 97.1006C198.852 96.3213 199.18 95.6621 199.836 95.123C200.498 94.584 201.342 94.3145 202.367 94.3145C203.445 94.3145 204.318 94.5928 204.986 95.1494C205.66 95.7061 205.997 96.418 205.997 97.2852H204.362C204.362 96.8398 204.172 96.4561 203.791 96.1338C203.416 95.8115 202.941 95.6504 202.367 95.6504C201.775 95.6504 201.312 95.7793 200.979 96.0371C200.645 96.2949 200.478 96.6318 200.478 97.0479C200.478 97.4404 200.633 97.7363 200.943 97.9355C201.254 98.1348 201.813 98.3252 202.622 98.5068C203.437 98.6885 204.096 98.9053 204.6 99.1572C205.104 99.4092 205.476 99.7139 205.716 100.071C205.962 100.423 206.085 100.854 206.085 101.363C206.085 102.213 205.745 102.896 205.065 103.411C204.386 103.921 203.504 104.176 202.42 104.176C201.658 104.176 200.984 104.041 200.398 103.771C199.812 103.502 199.353 103.127 199.019 102.646C198.69 102.16 198.526 101.636 198.526 101.073H200.152C200.182 101.618 200.398 102.052 200.803 102.374C201.213 102.69 201.752 102.849 202.42 102.849C203.035 102.849 203.527 102.726 203.896 102.479C204.271 102.228 204.459 101.894 204.459 101.478Z" fill="black"/>
<path d="M55.9287 13.9482H54.9883V18H53.3535V8.49023H54.9883V12.5156H55.7881L59.2773 8.49023H61.2373L57.2646 13.1045L61.5537 18H59.5059L55.9287 13.9482Z" fill="black"/>
</svg>
