<svg width="600" height="400" viewBox="0 0 600 400" fill="none" xmlns="http://www.w3.org/2000/svg">
  <style>
    text {
      font-family: Arial, sans-serif;
    }
  </style>
  <rect x="90" y="10" width="40" height="40" fill="#ccc" />
  <rect x="50" y="50" width="40" height="40" fill="#ccc" />
  <rect x="90" y="50" width="40" height="40" fill="#ccc" />
  <rect x="130" y="50" width="40" height="40" fill="#ccc" />
  <rect x="170" y="50" width="40" height="40" fill="#ccc" />
  <rect x="330" y="50" width="40" height="40" fill="#ccc" />
  <rect x="370" y="50" width="40" height="40" fill="#ccc" />
  <rect x="410" y="50" width="40" height="40" fill="#ccc" />
  <rect x="50" y="90" width="40" height="40" fill="#ccc" />
  <rect x="170" y="90" width="40" height="40" fill="#ccc" />
  <rect x="210" y="90" width="40" height="40" fill="#ccc" />
  <rect x="250" y="90" width="40" height="40" fill="#ccc" />
  <rect x="290" y="90" width="40" height="40" fill="#ccc" />
  <rect x="330" y="90" width="40" height="40" fill="#ccc" />
  <rect x="410" y="90" width="40" height="40" fill="#ccc" />
  <rect x="50" y="130" width="40" height="40" fill="#ccc" />
  <rect x="410" y="130" width="40" height="40" fill="#ccc" />
  <rect x="50" y="170" width="40" height="40" fill="#ccc" />
  <rect x="90" y="170" width="40" height="40" fill="#ccc" />
  <rect x="410" y="170" width="40" height="40" fill="#ccc" />
  <rect x="450" y="170" width="40" height="40" fill="#ccc" />
  <rect x="90" y="210" width="40" height="40" fill="#ccc" />
  <rect x="130" y="210" width="40" height="40" fill="#ccc" />
  <rect x="450" y="210" width="40" height="40" fill="#ccc" />
  <rect x="130" y="250" width="40" height="40" fill="#ccc" />
  <rect x="170" y="250" width="40" height="40" fill="#ccc" />
  <rect x="210" y="250" width="40" height="40" fill="#ccc" />
  <rect x="450" y="250" width="40" height="40" fill="#ccc" />
  <rect x="210" y="290" width="40" height="40" fill="#ccc" />
  <rect x="250" y="290" width="40" height="40" fill="#ccc" />
  <rect x="290" y="290" width="40" height="40" fill="#ccc" />
  <rect x="330" y="290" width="40" height="40" fill="#ccc" />
  <rect x="370" y="290" width="40" height="40" fill="#ccc" />
  <rect x="450" y="290" width="40" height="40" fill="#ccc" />
  <rect x="370" y="330" width="40" height="40" fill="#ccc" />
  <rect x="410" y="330" width="40" height="40" fill="#ccc" />
  <rect x="450" y="330" width="40" height="40" fill="#ccc" />
  <rect x="490" y="330" width="40" height="40" fill="#ccc" />
  <rect x="90" y="90" width="40" height="40" fill="#444" />
  <rect x="130" y="90" width="40" height="40" fill="#444" />
  <rect x="370" y="90" width="40" height="40" fill="#444" />
  <rect x="90" y="130" width="40" height="40" fill="#444" />
  <rect x="130" y="130" width="40" height="40" fill="#444" />
  <rect x="170" y="130" width="40" height="40" fill="#444" />
  <rect x="210" y="130" width="40" height="40" fill="#444" />
  <rect x="250" y="130" width="40" height="40" fill="#444" />
  <rect x="290" y="130" width="40" height="40" fill="#444" />
  <rect x="330" y="130" width="40" height="40" fill="#444" />
  <rect x="370" y="130" width="40" height="40" fill="#444" />
  <rect x="130" y="170" width="40" height="40" fill="#444" />
  <rect x="170" y="170" width="40" height="40" fill="#444" />
  <rect x="210" y="170" width="40" height="40" fill="#444" />
  <rect x="250" y="170" width="40" height="40" fill="#444" />
  <rect x="290" y="170" width="40" height="40" fill="#444" />
  <rect x="330" y="170" width="40" height="40" fill="#444" />
  <rect x="370" y="170" width="40" height="40" fill="#444" />
  <rect x="170" y="210" width="40" height="40" fill="#444" />
  <rect x="210" y="210" width="40" height="40" fill="#444" />
  <rect x="250" y="210" width="40" height="40" fill="#444" />
  <rect x="290" y="210" width="40" height="40" fill="#444" />
  <rect x="330" y="210" width="40" height="40" fill="#444" />
  <rect x="370" y="210" width="40" height="40" fill="#444" />
  <rect x="410" y="210" width="40" height="40" fill="#444" />
  <rect x="250" y="250" width="40" height="40" fill="#444" />
  <rect x="290" y="250" width="40" height="40" fill="#444" />
  <rect x="330" y="250" width="40" height="40" fill="#444" />
  <rect x="370" y="250" width="40" height="40" fill="#444" />
  <rect x="410" y="250" width="40" height="40" fill="#444" />
  <rect x="410" y="290" width="40" height="40" fill="#444" />
  <line x1="10" y1="10" x2="10" y2="370" stroke="#000" />
  <line x1="50" y1="10" x2="50" y2="370" stroke="#000" />
  <line x1="90" y1="10" x2="90" y2="370" stroke="#000" />
  <line x1="130" y1="10" x2="130" y2="370" stroke="#000" />
  <line x1="170" y1="10" x2="170" y2="370" stroke="#000" />
  <line x1="210" y1="10" x2="210" y2="370" stroke="#000" />
  <line x1="250" y1="10" x2="250" y2="370" stroke="#000" />
  <line x1="290" y1="10" x2="290" y2="370" stroke="#000" />
  <line x1="330" y1="10" x2="330" y2="370" stroke="#000" />
  <line x1="370" y1="10" x2="370" y2="370" stroke="#000" />
  <line x1="410" y1="10" x2="410" y2="370" stroke="#000" />
  <line x1="450" y1="10" x2="450" y2="370" stroke="#000" />
  <line x1="490" y1="10" x2="490" y2="370" stroke="#000" />
  <line x1="530" y1="10" x2="530" y2="370" stroke="#000" />
  <line x1="570" y1="10" x2="570" y2="370" stroke="#000" />
  <line x1="10" y1="10" x2="570" y2="10" stroke="#000" />
  <line x1="10" y1="50" x2="570" y2="50" stroke="#000" />
  <line x1="10" y1="90" x2="570" y2="90" stroke="#000" />
  <line x1="10" y1="130" x2="570" y2="130" stroke="#000" />
  <line x1="10" y1="170" x2="570" y2="170" stroke="#000" />
  <line x1="10" y1="210" x2="570" y2="210" stroke="#000" />
  <line x1="10" y1="250" x2="570" y2="250" stroke="#000" />
  <line x1="10" y1="290" x2="570" y2="290" stroke="#000" />
  <line x1="10" y1="330" x2="570" y2="330" stroke="#000" />
  <line x1="10" y1="370" x2="570" y2="370" stroke="#000" />
  <path d="M60 150L100 40 250 120 420 70 495 360 180 280z" stroke="#008" stroke-width="2" fill="none" />
</svg>
