<svg width="300" height="200" viewBox="0 0 300 200" fill="none" xmlns="http://www.w3.org/2000/svg">
<rect width="300" height="200" fill="#E5E5E5"/>
<rect width="300" height="200" fill="#EEEEEE"/>
<line x1="20.5" x2="20.5" y2="200" stroke="#808080"/>
<line x1="120.5" x2="120.5" y2="200" stroke="#808080"/>
<line x1="100.5" x2="100.5" y2="200" stroke="#808080"/>
<line x1="80.5" x2="80.5" y2="200" stroke="#808080"/>
<line x1="60.5" x2="60.5" y2="200" stroke="#808080"/>
<line x1="40.5" x2="40.5" y2="200" stroke="#808080"/>
<line x1="140.5" x2="140.5" y2="200" stroke="#808080"/>
<line x1="240.5" x2="240.5" y2="200" stroke="#808080"/>
<line x1="220.5" x2="220.5" y2="200" stroke="#808080"/>
<line x1="200.5" x2="200.5" y2="200" stroke="#808080"/>
<line x1="280.5" x2="280.5" y2="200" stroke="#808080"/>
<line x1="260.5" x2="260.5" y2="200" stroke="#808080"/>
<line x1="180.5" x2="180.5" y2="200" stroke="#808080"/>
<line x1="160.5" x2="160.5" y2="200" stroke="#808080"/>
<line y1="19.5" x2="300" y2="19.5" stroke="#808080"/>
<line y1="39.5" x2="300" y2="39.5" stroke="#808080"/>
<line y1="59.5" x2="300" y2="59.5" stroke="#808080"/>
<line y1="79.5" x2="300" y2="79.5" stroke="#808080"/>
<line y1="99.5" x2="300" y2="99.5" stroke="#808080"/>
<line y1="139.5" x2="300" y2="139.5" stroke="#808080"/>
<line y1="159.5" x2="300" y2="159.5" stroke="#808080"/>
<line y1="179.5" x2="300" y2="179.5" stroke="#808080"/>
<line y1="119.5" x2="300" y2="119.5" stroke="#808080"/>
<rect x="180" y="20" width="20" height="20" stroke="black" stroke-width="2"/>
<rect x="160" y="20" width="20" height="20" stroke="black" stroke-width="2"/>
<rect x="200" y="40" width="20" height="20" stroke="black" stroke-width="2"/>
<rect x="200" y="20" width="20" height="20" stroke="black" stroke-width="2"/>
<rect x="160" y="40" width="20" height="20" stroke="black" stroke-width="2"/>
<rect x="140" y="40" width="20" height="20" stroke="black" stroke-width="2"/>
<rect x="160" y="60" width="20" height="20" stroke="black" stroke-width="2"/>
<rect x="180" y="60" width="20" height="20" stroke="black" stroke-width="2"/>
<rect x="140" y="60" width="20" height="20" stroke="black" stroke-width="2"/>
<rect x="120" y="60" width="20" height="20" stroke="black" stroke-width="2"/>
<rect x="100" y="60" width="20" height="20" stroke="black" stroke-width="2"/>
<rect x="120" y="80" width="20" height="20" stroke="black" stroke-width="2"/>
<rect x="100" y="80" width="20" height="20" stroke="black" stroke-width="2"/>
<rect x="80" y="120" width="20" height="20" stroke="black" stroke-width="2"/>
<rect x="60" y="140" width="20" height="20" stroke="black" stroke-width="2"/>
<rect x="80" y="140" width="20" height="20" stroke="black" stroke-width="2"/>
<rect x="40" y="140" width="20" height="20" stroke="black" stroke-width="2"/>
<rect x="40" y="120" width="20" height="20" stroke="black" stroke-width="2"/>
<rect x="60" y="120" width="20" height="20" stroke="black" stroke-width="2"/>
<rect x="120" y="80" width="20" height="20" stroke="black" stroke-width="2"/>
<rect x="140" y="80" width="20" height="20" stroke="black" stroke-width="2"/>
<rect x="160" y="80" width="20" height="20" stroke="black" stroke-width="2"/>
<rect x="100" y="80" width="20" height="20" stroke="black" stroke-width="2"/>
<rect x="80" y="80" width="20" height="20" stroke="black" stroke-width="2"/>
<rect x="60" y="100" width="20" height="20" stroke="black" stroke-width="2"/>
<rect x="40" y="100" width="20" height="20" stroke="black" stroke-width="2"/>
<rect x="100" y="80" width="20" height="20" stroke="black" stroke-width="2"/>
<rect x="100" y="100" width="20" height="20" stroke="black" stroke-width="2"/>
<rect x="120" y="100" width="20" height="20" stroke="black" stroke-width="2"/>
<rect x="80" y="100" width="20" height="20" stroke="black" stroke-width="2"/>
<rect x="100" y="120" width="20" height="20" stroke="black" stroke-width="2"/>
<line x1="63.8884" y1="134.146" x2="191.034" y2="46.9647" stroke="#0E790C" stroke-opacity="0.5" stroke-width="30" stroke-linecap="round"/>
</svg>
