<svg width="500" height="648" viewBox="0 0 500 648" fill="none" xmlns="http://www.w3.org/2000/svg">
<rect width="500" height="648" fill="#E5E5E5"/>
<rect y="298" width="500" height="350" fill="#C4C4C4"/>
<line x1="100.5" y1="298" x2="100.5" y2="648" stroke="black"/>
<line x1="200.5" y1="298" x2="200.5" y2="648" stroke="black"/>
<line x1="300.5" y1="298" x2="300.5" y2="648" stroke="black"/>
<line x1="400.5" y1="298" x2="400.5" y2="648" stroke="black"/>
<line x1="200.5" y1="298" x2="200.5" y2="648" stroke="black"/>
<line y1="397.5" x2="500" y2="397.5" stroke="black"/>
<line y1="497.5" x2="500" y2="497.5" stroke="black"/>
<line y1="597.5" x2="500" y2="597.5" stroke="black"/>
<line y1="597.5" x2="500" y2="597.5" stroke="black"/>
<path d="M461.5 448L71 309L247.5 594L461.5 448Z" fill="#87C294" fill-opacity="0.5" stroke="black"/>
<rect x="70.5" y="20.5" width="99" height="99" fill="#C4C4C4" stroke="black"/>
<path d="M170 39H90L119.045 96H170V39Z" fill="#4BB776" fill-opacity="0.5"/>
<line x1="90.4441" y1="38.7703" x2="120.444" y2="96.7703" stroke="black"/>
<path d="M123.926 62.4238H126.305V63.4492H123.926V66.1445H122.836V63.4492H120.457V62.4238H122.836V59.9336H123.926V62.4238ZM131.08 67H129.99V59.7754L127.805 60.5781V59.5938L130.91 58.4277H131.08V67Z" fill="black"/>
<rect x="70" y="160" width="100" height="100" fill="#C4C4C4" stroke="black"/>
<rect x="170" y="160" width="100" height="100" fill="#88BFA2" stroke="black"/>
<rect x="270" y="160" width="100" height="100" fill="#88BFA2" stroke="black"/>
<path d="M170 160H89L110 200.5H170V160Z" fill="#4BB776" fill-opacity="0.5"/>
<line x1="79.4441" y1="142.77" x2="109.444" y2="200.77" stroke="black"/>
<path d="M123.926 181.424H126.305V182.449H123.926V185.145H122.836V182.449H120.457V181.424H122.836V178.934H123.926V181.424ZM131.08 186H129.99V178.775L127.805 179.578V178.594L130.91 177.428H131.08V186Z" fill="black"/>
<path d="M218.926 206.424H221.305V207.449H218.926V210.145H217.836V207.449H215.457V206.424H217.836V203.934H218.926V206.424ZM226.08 211H224.99V203.775L222.805 204.578V203.594L225.91 202.428H226.08V211Z" fill="black"/>
<path d="M318.926 206.424H321.305V207.449H318.926V210.145H317.836V207.449H315.457V206.424H317.836V203.934H318.926V206.424ZM326.08 211H324.99V203.775L322.805 204.578V203.594L325.91 202.428H326.08V211Z" fill="black"/>
<rect x="220.5" y="20.5" width="99" height="99" fill="#C4C4C4" stroke="black"/>
<line x1="210.444" y1="38.7703" x2="240.444" y2="96.7703" stroke="black"/>
<path d="M240.5 97L220.5 59V119H319.5V97H240.5Z" fill="#E73030" fill-opacity="0.5"/>
<path d="M280.076 107.818H277.217V106.934H280.076V107.818ZM284.588 111H283.498V103.775L281.312 104.578V103.594L284.418 102.428H284.588V111Z" fill="black"/>
<path d="M381.531 206.295C381.531 205.732 381.695 205.264 382.023 204.889C382.363 204.514 382.867 204.326 383.535 204.326C384.203 204.326 384.707 204.514 385.047 204.889C385.398 205.264 385.574 205.732 385.574 206.295C385.574 206.834 385.398 207.285 385.047 207.648C384.707 208.012 384.203 208.193 383.535 208.193C382.867 208.193 382.363 208.012 382.023 207.648C381.695 207.285 381.531 206.834 381.531 206.295ZM391.023 206.295C391.023 205.732 391.188 205.264 391.516 204.889C391.855 204.514 392.359 204.326 393.027 204.326C393.695 204.326 394.199 204.514 394.539 204.889C394.891 205.264 395.066 205.732 395.066 206.295C395.066 206.834 394.891 207.285 394.539 207.648C394.199 208.012 393.695 208.193 393.027 208.193C392.359 208.193 391.855 208.012 391.516 207.648C391.188 207.285 391.023 206.834 391.023 206.295ZM400.516 206.295C400.516 205.732 400.68 205.264 401.008 204.889C401.348 204.514 401.852 204.326 402.52 204.326C403.188 204.326 403.691 204.514 404.031 204.889C404.383 205.264 404.559 205.732 404.559 206.295C404.559 206.834 404.383 207.285 404.031 207.648C403.691 208.012 403.188 208.193 402.52 208.193C401.852 208.193 401.348 208.012 401.008 207.648C400.68 207.285 400.516 206.834 400.516 206.295Z" fill="black"/>
<path d="M83.5117 7.31836C83.5117 7.02539 83.4004 6.79883 83.1777 6.63867C82.959 6.47461 82.5742 6.33398 82.0234 6.2168C81.4766 6.09961 81.041 5.95898 80.7168 5.79492C80.3965 5.63086 80.1582 5.43555 80.002 5.20898C79.8496 4.98242 79.7734 4.71289 79.7734 4.40039C79.7734 3.88086 79.9922 3.44141 80.4297 3.08203C80.8711 2.72266 81.4336 2.54297 82.1172 2.54297C82.8359 2.54297 83.418 2.72852 83.8633 3.09961C84.3125 3.4707 84.5371 3.94531 84.5371 4.52344H83.4473C83.4473 4.22656 83.3203 3.9707 83.0664 3.75586C82.8164 3.54102 82.5 3.43359 82.1172 3.43359C81.7227 3.43359 81.4141 3.51953 81.1914 3.69141C80.9688 3.86328 80.8574 4.08789 80.8574 4.36523C80.8574 4.62695 80.9609 4.82422 81.168 4.95703C81.375 5.08984 81.748 5.2168 82.2871 5.33789C82.8301 5.45898 83.2695 5.60352 83.6055 5.77148C83.9414 5.93945 84.1895 6.14258 84.3496 6.38086C84.5137 6.61523 84.5957 6.90234 84.5957 7.24219C84.5957 7.80859 84.3691 8.26367 83.916 8.60742C83.4629 8.94727 82.875 9.11719 82.1523 9.11719C81.6445 9.11719 81.1953 9.02734 80.8047 8.84766C80.4141 8.66797 80.1074 8.41797 79.8848 8.09766C79.666 7.77344 79.5566 7.42383 79.5566 7.04883H80.6406C80.6602 7.41211 80.8047 7.70117 81.0742 7.91602C81.3477 8.12695 81.707 8.23242 82.1523 8.23242C82.5625 8.23242 82.8906 8.15039 83.1367 7.98633C83.3867 7.81836 83.5117 7.5957 83.5117 7.31836ZM87.1855 9H86.1016V2.66016H87.1855V9ZM86.0137 0.978516C86.0137 0.802734 86.0664 0.654297 86.1719 0.533203C86.2812 0.412109 86.4414 0.351562 86.6523 0.351562C86.8633 0.351562 87.0234 0.412109 87.1328 0.533203C87.2422 0.654297 87.2969 0.802734 87.2969 0.978516C87.2969 1.1543 87.2422 1.30078 87.1328 1.41797C87.0234 1.53516 86.8633 1.59375 86.6523 1.59375C86.4414 1.59375 86.2812 1.53516 86.1719 1.41797C86.0664 1.30078 86.0137 1.1543 86.0137 0.978516ZM89.9453 2.66016L89.9746 3.36328C90.4395 2.81641 91.0664 2.54297 91.8555 2.54297C92.7422 2.54297 93.3457 2.88281 93.666 3.5625C93.877 3.25781 94.1504 3.01172 94.4863 2.82422C94.8262 2.63672 95.2266 2.54297 95.6875 2.54297C97.0781 2.54297 97.7852 3.2793 97.8086 4.75195V9H96.7246V4.81641C96.7246 4.36328 96.6211 4.02539 96.4141 3.80273C96.207 3.57617 95.8594 3.46289 95.3711 3.46289C94.9688 3.46289 94.6348 3.58398 94.3691 3.82617C94.1035 4.06445 93.9492 4.38672 93.9062 4.79297V9H92.8164V4.8457C92.8164 3.92383 92.3652 3.46289 91.4629 3.46289C90.752 3.46289 90.2656 3.76562 90.0039 4.37109V9H88.9199V2.66016H89.9453ZM104.805 5.90039C104.805 6.86523 104.584 7.64258 104.143 8.23242C103.701 8.82227 103.104 9.11719 102.35 9.11719C101.58 9.11719 100.975 8.87305 100.533 8.38477V11.4375H99.4492V2.66016H100.439L100.492 3.36328C100.934 2.81641 101.547 2.54297 102.332 2.54297C103.094 2.54297 103.695 2.83008 104.137 3.4043C104.582 3.97852 104.805 4.77734 104.805 5.80078V5.90039ZM103.721 5.77734C103.721 5.0625 103.568 4.49805 103.264 4.08398C102.959 3.66992 102.541 3.46289 102.01 3.46289C101.354 3.46289 100.861 3.75391 100.533 4.33594V7.36523C100.857 7.94336 101.354 8.23242 102.021 8.23242C102.541 8.23242 102.953 8.02734 103.258 7.61719C103.566 7.20312 103.721 6.58984 103.721 5.77734ZM107.365 9H106.281V0H107.365V9ZM111.736 9.11719C110.877 9.11719 110.178 8.83594 109.639 8.27344C109.1 7.70703 108.83 6.95117 108.83 6.00586V5.80664C108.83 5.17773 108.949 4.61719 109.188 4.125C109.43 3.62891 109.766 3.24219 110.195 2.96484C110.629 2.68359 111.098 2.54297 111.602 2.54297C112.426 2.54297 113.066 2.81445 113.523 3.35742C113.98 3.90039 114.209 4.67773 114.209 5.68945V6.14062H109.914C109.93 6.76562 110.111 7.27148 110.459 7.6582C110.811 8.04102 111.256 8.23242 111.795 8.23242C112.178 8.23242 112.502 8.1543 112.768 7.99805C113.033 7.8418 113.266 7.63477 113.465 7.37695L114.127 7.89258C113.596 8.70898 112.799 9.11719 111.736 9.11719ZM111.602 3.43359C111.164 3.43359 110.797 3.59375 110.5 3.91406C110.203 4.23047 110.02 4.67578 109.949 5.25H113.125V5.16797C113.094 4.61719 112.945 4.19141 112.68 3.89062C112.414 3.58594 112.055 3.43359 111.602 3.43359ZM120.988 8.23242C121.375 8.23242 121.713 8.11523 122.002 7.88086C122.291 7.64648 122.451 7.35352 122.482 7.00195H123.508C123.488 7.36523 123.363 7.71094 123.133 8.03906C122.902 8.36719 122.594 8.62891 122.207 8.82422C121.824 9.01953 121.418 9.11719 120.988 9.11719C120.125 9.11719 119.438 8.83008 118.926 8.25586C118.418 7.67773 118.164 6.88867 118.164 5.88867V5.70703C118.164 5.08984 118.277 4.54102 118.504 4.06055C118.73 3.58008 119.055 3.20703 119.477 2.94141C119.902 2.67578 120.404 2.54297 120.982 2.54297C121.693 2.54297 122.283 2.75586 122.752 3.18164C123.225 3.60742 123.477 4.16016 123.508 4.83984H122.482C122.451 4.42969 122.295 4.09375 122.014 3.83203C121.736 3.56641 121.393 3.43359 120.982 3.43359C120.432 3.43359 120.004 3.63281 119.699 4.03125C119.398 4.42578 119.248 4.99805 119.248 5.74805V5.95312C119.248 6.68359 119.398 7.24609 119.699 7.64062C120 8.03516 120.43 8.23242 120.988 8.23242ZM128.641 9C128.578 8.875 128.527 8.65234 128.488 8.33203C127.984 8.85547 127.383 9.11719 126.684 9.11719C126.059 9.11719 125.545 8.94141 125.143 8.58984C124.744 8.23438 124.545 7.78516 124.545 7.24219C124.545 6.58203 124.795 6.07031 125.295 5.70703C125.799 5.33984 126.506 5.15625 127.416 5.15625H128.471V4.6582C128.471 4.2793 128.357 3.97852 128.131 3.75586C127.904 3.5293 127.57 3.41602 127.129 3.41602C126.742 3.41602 126.418 3.51367 126.156 3.70898C125.895 3.9043 125.764 4.14062 125.764 4.41797H124.674C124.674 4.10156 124.785 3.79688 125.008 3.50391C125.234 3.20703 125.539 2.97266 125.922 2.80078C126.309 2.62891 126.732 2.54297 127.193 2.54297C127.924 2.54297 128.496 2.72656 128.91 3.09375C129.324 3.45703 129.539 3.95898 129.555 4.59961V7.51758C129.555 8.09961 129.629 8.5625 129.777 8.90625V9H128.641ZM126.842 8.17383C127.182 8.17383 127.504 8.08594 127.809 7.91016C128.113 7.73438 128.334 7.50586 128.471 7.22461V5.92383H127.621C126.293 5.92383 125.629 6.3125 125.629 7.08984C125.629 7.42969 125.742 7.69531 125.969 7.88672C126.195 8.07812 126.486 8.17383 126.842 8.17383ZM134.945 7.31836C134.945 7.02539 134.834 6.79883 134.611 6.63867C134.393 6.47461 134.008 6.33398 133.457 6.2168C132.91 6.09961 132.475 5.95898 132.15 5.79492C131.83 5.63086 131.592 5.43555 131.436 5.20898C131.283 4.98242 131.207 4.71289 131.207 4.40039C131.207 3.88086 131.426 3.44141 131.863 3.08203C132.305 2.72266 132.867 2.54297 133.551 2.54297C134.27 2.54297 134.852 2.72852 135.297 3.09961C135.746 3.4707 135.971 3.94531 135.971 4.52344H134.881C134.881 4.22656 134.754 3.9707 134.5 3.75586C134.25 3.54102 133.934 3.43359 133.551 3.43359C133.156 3.43359 132.848 3.51953 132.625 3.69141C132.402 3.86328 132.291 4.08789 132.291 4.36523C132.291 4.62695 132.395 4.82422 132.602 4.95703C132.809 5.08984 133.182 5.2168 133.721 5.33789C134.264 5.45898 134.703 5.60352 135.039 5.77148C135.375 5.93945 135.623 6.14258 135.783 6.38086C135.947 6.61523 136.029 6.90234 136.029 7.24219C136.029 7.80859 135.803 8.26367 135.35 8.60742C134.896 8.94727 134.309 9.11719 133.586 9.11719C133.078 9.11719 132.629 9.02734 132.238 8.84766C131.848 8.66797 131.541 8.41797 131.318 8.09766C131.1 7.77344 130.99 7.42383 130.99 7.04883H132.074C132.094 7.41211 132.238 7.70117 132.508 7.91602C132.781 8.12695 133.141 8.23242 133.586 8.23242C133.996 8.23242 134.324 8.15039 134.57 7.98633C134.82 7.81836 134.945 7.5957 134.945 7.31836ZM140.072 9.11719C139.213 9.11719 138.514 8.83594 137.975 8.27344C137.436 7.70703 137.166 6.95117 137.166 6.00586V5.80664C137.166 5.17773 137.285 4.61719 137.523 4.125C137.766 3.62891 138.102 3.24219 138.531 2.96484C138.965 2.68359 139.434 2.54297 139.938 2.54297C140.762 2.54297 141.402 2.81445 141.859 3.35742C142.316 3.90039 142.545 4.67773 142.545 5.68945V6.14062H138.25C138.266 6.76562 138.447 7.27148 138.795 7.6582C139.146 8.04102 139.592 8.23242 140.131 8.23242C140.514 8.23242 140.838 8.1543 141.104 7.99805C141.369 7.8418 141.602 7.63477 141.801 7.37695L142.463 7.89258C141.932 8.70898 141.135 9.11719 140.072 9.11719ZM139.938 3.43359C139.5 3.43359 139.133 3.59375 138.836 3.91406C138.539 4.23047 138.355 4.67578 138.285 5.25H141.461V5.16797C141.43 4.61719 141.281 4.19141 141.016 3.89062C140.75 3.58594 140.391 3.43359 139.938 3.43359Z" fill="black"/>
<path d="M231.895 7.41211L233.371 2.66016H234.531L231.982 9.97852C231.588 11.0332 230.961 11.5605 230.102 11.5605L229.896 11.543L229.492 11.4668V10.5879L229.785 10.6113C230.152 10.6113 230.438 10.5371 230.641 10.3887C230.848 10.2402 231.018 9.96875 231.15 9.57422L231.391 8.92969L229.129 2.66016H230.312L231.895 7.41211ZM237.76 5.81836H234.9V4.93359H237.76V5.81836ZM241.451 9.11719C240.592 9.11719 239.893 8.83594 239.354 8.27344C238.814 7.70703 238.545 6.95117 238.545 6.00586V5.80664C238.545 5.17773 238.664 4.61719 238.902 4.125C239.145 3.62891 239.48 3.24219 239.91 2.96484C240.344 2.68359 240.812 2.54297 241.316 2.54297C242.141 2.54297 242.781 2.81445 243.238 3.35742C243.695 3.90039 243.924 4.67773 243.924 5.68945V6.14062H239.629C239.645 6.76562 239.826 7.27148 240.174 7.6582C240.525 8.04102 240.971 8.23242 241.51 8.23242C241.893 8.23242 242.217 8.1543 242.482 7.99805C242.748 7.8418 242.98 7.63477 243.18 7.37695L243.842 7.89258C243.311 8.70898 242.514 9.11719 241.451 9.11719ZM241.316 3.43359C240.879 3.43359 240.512 3.59375 240.215 3.91406C239.918 4.23047 239.734 4.67578 239.664 5.25H242.84V5.16797C242.809 4.61719 242.66 4.19141 242.395 3.89062C242.129 3.58594 241.77 3.43359 241.316 3.43359ZM244.92 5.77734C244.92 4.80469 245.15 4.02344 245.611 3.43359C246.072 2.83984 246.676 2.54297 247.422 2.54297C248.164 2.54297 248.752 2.79688 249.186 3.30469V0H250.27V9H249.273L249.221 8.32031C248.787 8.85156 248.184 9.11719 247.41 9.11719C246.676 9.11719 246.076 8.81641 245.611 8.21484C245.15 7.61328 244.92 6.82812 244.92 5.85938V5.77734ZM246.004 5.90039C246.004 6.61914 246.152 7.18164 246.449 7.58789C246.746 7.99414 247.156 8.19727 247.68 8.19727C248.367 8.19727 248.869 7.88867 249.186 7.27148V4.35938C248.861 3.76172 248.363 3.46289 247.691 3.46289C247.16 3.46289 246.746 3.66797 246.449 4.07812C246.152 4.48828 246.004 5.0957 246.004 5.90039ZM251.699 5.77734C251.699 4.78906 251.928 4.00391 252.385 3.42188C252.842 2.83594 253.447 2.54297 254.201 2.54297C254.975 2.54297 255.578 2.81641 256.012 3.36328L256.064 2.66016H257.055V8.84766C257.055 9.66797 256.811 10.3145 256.322 10.7871C255.838 11.2598 255.186 11.4961 254.365 11.4961C253.908 11.4961 253.461 11.3984 253.023 11.2031C252.586 11.0078 252.252 10.7402 252.021 10.4004L252.584 9.75C253.049 10.3242 253.617 10.6113 254.289 10.6113C254.816 10.6113 255.227 10.4629 255.52 10.166C255.816 9.86914 255.965 9.45117 255.965 8.91211V8.36719C255.531 8.86719 254.939 9.11719 254.189 9.11719C253.447 9.11719 252.846 8.81836 252.385 8.2207C251.928 7.62305 251.699 6.80859 251.699 5.77734ZM252.789 5.90039C252.789 6.61523 252.936 7.17773 253.229 7.58789C253.521 7.99414 253.932 8.19727 254.459 8.19727C255.143 8.19727 255.645 7.88672 255.965 7.26562V4.37109C255.633 3.76562 255.135 3.46289 254.471 3.46289C253.943 3.46289 253.531 3.66797 253.234 4.07812C252.938 4.48828 252.789 5.0957 252.789 5.90039ZM261.326 9.11719C260.467 9.11719 259.768 8.83594 259.229 8.27344C258.689 7.70703 258.42 6.95117 258.42 6.00586V5.80664C258.42 5.17773 258.539 4.61719 258.777 4.125C259.02 3.62891 259.355 3.24219 259.785 2.96484C260.219 2.68359 260.688 2.54297 261.191 2.54297C262.016 2.54297 262.656 2.81445 263.113 3.35742C263.57 3.90039 263.799 4.67773 263.799 5.68945V6.14062H259.504C259.52 6.76562 259.701 7.27148 260.049 7.6582C260.4 8.04102 260.846 8.23242 261.385 8.23242C261.768 8.23242 262.092 8.1543 262.357 7.99805C262.623 7.8418 262.855 7.63477 263.055 7.37695L263.717 7.89258C263.186 8.70898 262.389 9.11719 261.326 9.11719ZM261.191 3.43359C260.754 3.43359 260.387 3.59375 260.09 3.91406C259.793 4.23047 259.609 4.67578 259.539 5.25H262.715V5.16797C262.684 4.61719 262.535 4.19141 262.27 3.89062C262.004 3.58594 261.645 3.43359 261.191 3.43359Z" fill="black"/>
<path d="M185.188 145.9C185.188 146.869 184.965 147.648 184.52 148.238C184.074 148.824 183.477 149.117 182.727 149.117C181.926 149.117 181.307 148.834 180.869 148.268L180.816 149H179.82V140H180.904V143.357C181.342 142.814 181.945 142.543 182.715 142.543C183.484 142.543 184.088 142.834 184.525 143.416C184.967 143.998 185.188 144.795 185.188 145.807V145.9ZM184.104 145.777C184.104 145.039 183.961 144.469 183.676 144.066C183.391 143.664 182.98 143.463 182.445 143.463C181.73 143.463 181.217 143.795 180.904 144.459V147.201C181.236 147.865 181.754 148.197 182.457 148.197C182.977 148.197 183.381 147.996 183.67 147.594C183.959 147.191 184.104 146.586 184.104 145.777ZM190.473 149C190.41 148.875 190.359 148.652 190.32 148.332C189.816 148.855 189.215 149.117 188.516 149.117C187.891 149.117 187.377 148.941 186.975 148.59C186.576 148.234 186.377 147.785 186.377 147.242C186.377 146.582 186.627 146.07 187.127 145.707C187.631 145.34 188.338 145.156 189.248 145.156H190.303V144.658C190.303 144.279 190.189 143.979 189.963 143.756C189.736 143.529 189.402 143.416 188.961 143.416C188.574 143.416 188.25 143.514 187.988 143.709C187.727 143.904 187.596 144.141 187.596 144.418H186.506C186.506 144.102 186.617 143.797 186.84 143.504C187.066 143.207 187.371 142.973 187.754 142.801C188.141 142.629 188.564 142.543 189.025 142.543C189.756 142.543 190.328 142.727 190.742 143.094C191.156 143.457 191.371 143.959 191.387 144.6V147.518C191.387 148.1 191.461 148.562 191.609 148.906V149H190.473ZM188.674 148.174C189.014 148.174 189.336 148.086 189.641 147.91C189.945 147.734 190.166 147.506 190.303 147.225V145.924H189.453C188.125 145.924 187.461 146.312 187.461 147.09C187.461 147.43 187.574 147.695 187.801 147.887C188.027 148.078 188.318 148.174 188.674 148.174ZM195.629 148.232C196.016 148.232 196.354 148.115 196.643 147.881C196.932 147.646 197.092 147.354 197.123 147.002H198.148C198.129 147.365 198.004 147.711 197.773 148.039C197.543 148.367 197.234 148.629 196.848 148.824C196.465 149.02 196.059 149.117 195.629 149.117C194.766 149.117 194.078 148.83 193.566 148.256C193.059 147.678 192.805 146.889 192.805 145.889V145.707C192.805 145.09 192.918 144.541 193.145 144.061C193.371 143.58 193.695 143.207 194.117 142.941C194.543 142.676 195.045 142.543 195.623 142.543C196.334 142.543 196.924 142.756 197.393 143.182C197.865 143.607 198.117 144.16 198.148 144.84H197.123C197.092 144.43 196.936 144.094 196.654 143.832C196.377 143.566 196.033 143.434 195.623 143.434C195.072 143.434 194.645 143.633 194.34 144.031C194.039 144.426 193.889 144.998 193.889 145.748V145.953C193.889 146.684 194.039 147.246 194.34 147.641C194.641 148.035 195.07 148.232 195.629 148.232ZM201.137 146.064L200.457 146.773V149H199.373V140H200.457V145.443L201.037 144.746L203.012 142.66H204.33L201.863 145.309L204.617 149H203.346L201.137 146.064ZM205.068 145.777C205.068 144.805 205.299 144.023 205.76 143.434C206.221 142.84 206.824 142.543 207.57 142.543C208.312 142.543 208.9 142.797 209.334 143.305V140H210.418V149H209.422L209.369 148.32C208.936 148.852 208.332 149.117 207.559 149.117C206.824 149.117 206.225 148.816 205.76 148.215C205.299 147.613 205.068 146.828 205.068 145.859V145.777ZM206.152 145.9C206.152 146.619 206.301 147.182 206.598 147.588C206.895 147.994 207.305 148.197 207.828 148.197C208.516 148.197 209.018 147.889 209.334 147.271V144.359C209.01 143.762 208.512 143.463 207.84 143.463C207.309 143.463 206.895 143.668 206.598 144.078C206.301 144.488 206.152 145.096 206.152 145.9ZM215.17 143.633C215.006 143.605 214.828 143.592 214.637 143.592C213.926 143.592 213.443 143.895 213.189 144.5V149H212.105V142.66H213.16L213.178 143.393C213.533 142.826 214.037 142.543 214.689 142.543C214.9 142.543 215.061 142.57 215.17 142.625V143.633ZM215.768 145.771C215.768 145.15 215.889 144.592 216.131 144.096C216.377 143.6 216.717 143.217 217.15 142.947C217.588 142.678 218.086 142.543 218.645 142.543C219.508 142.543 220.205 142.842 220.736 143.439C221.271 144.037 221.539 144.832 221.539 145.824V145.9C221.539 146.518 221.42 147.072 221.182 147.564C220.947 148.053 220.609 148.434 220.168 148.707C219.73 148.98 219.227 149.117 218.656 149.117C217.797 149.117 217.1 148.818 216.564 148.221C216.033 147.623 215.768 146.832 215.768 145.848V145.771ZM216.857 145.9C216.857 146.604 217.02 147.168 217.344 147.594C217.672 148.02 218.109 148.232 218.656 148.232C219.207 148.232 219.645 148.018 219.969 147.588C220.293 147.154 220.455 146.549 220.455 145.771C220.455 145.076 220.289 144.514 219.957 144.084C219.629 143.65 219.191 143.434 218.645 143.434C218.109 143.434 217.678 143.646 217.35 144.072C217.021 144.498 216.857 145.107 216.857 145.9ZM228.254 145.9C228.254 146.865 228.033 147.643 227.592 148.232C227.15 148.822 226.553 149.117 225.799 149.117C225.029 149.117 224.424 148.873 223.982 148.385V151.438H222.898V142.66H223.889L223.941 143.363C224.383 142.816 224.996 142.543 225.781 142.543C226.543 142.543 227.145 142.83 227.586 143.404C228.031 143.979 228.254 144.777 228.254 145.801V145.9ZM227.17 145.777C227.17 145.062 227.018 144.498 226.713 144.084C226.408 143.67 225.99 143.463 225.459 143.463C224.803 143.463 224.311 143.754 223.982 144.336V147.365C224.307 147.943 224.803 148.232 225.471 148.232C225.99 148.232 226.402 148.027 226.707 147.617C227.016 147.203 227.17 146.59 227.17 145.777Z" fill="black"/>
<line x1="95.5502" y1="351.343" x2="106.157" y2="361.95" stroke="#9B3636"/>
<line x1="105.96" y1="351.354" x2="95.3535" y2="361.96" stroke="#9B3636"/>
<line x1="95.5502" y1="351.343" x2="106.157" y2="361.95" stroke="#9B3636"/>
<line x1="105.96" y1="351.354" x2="95.3535" y2="361.96" stroke="#9B3636"/>
<line x1="95.5502" y1="314.343" x2="106.157" y2="324.95" stroke="#9B3636"/>
<line x1="105.96" y1="314.354" x2="95.3535" y2="324.96" stroke="#9B3636"/>
<line x1="95.5502" y1="314.343" x2="106.157" y2="324.95" stroke="#9B3636"/>
<line x1="105.96" y1="314.354" x2="95.3535" y2="324.96" stroke="#9B3636"/>
<line x1="195.55" y1="512.343" x2="206.157" y2="522.95" stroke="#9B3636"/>
<line x1="205.96" y1="512.354" x2="195.354" y2="522.96" stroke="#9B3636"/>
<line x1="195.55" y1="512.343" x2="206.157" y2="522.95" stroke="#9B3636"/>
<line x1="205.96" y1="512.354" x2="195.354" y2="522.96" stroke="#9B3636"/>
<line x1="295.55" y1="552.343" x2="306.157" y2="562.95" stroke="#9B3636"/>
<line x1="305.96" y1="552.354" x2="295.354" y2="562.96" stroke="#9B3636"/>
<line x1="295.55" y1="552.343" x2="306.157" y2="562.95" stroke="#9B3636"/>
<line x1="305.96" y1="552.354" x2="295.354" y2="562.96" stroke="#9B3636"/>
<line x1="195.55" y1="350.343" x2="206.157" y2="360.95" stroke="#9B3636"/>
<line x1="205.96" y1="350.354" x2="195.354" y2="360.96" stroke="#9B3636"/>
<line x1="195.55" y1="350.343" x2="206.157" y2="360.95" stroke="#9B3636"/>
<line x1="205.96" y1="350.354" x2="195.354" y2="360.96" stroke="#9B3636"/>
<line x1="215.55" y1="52.3431" x2="226.157" y2="62.9497" stroke="#9B3636"/>
<line x1="225.96" y1="52.3536" x2="215.354" y2="62.9602" stroke="#9B3636"/>
<line x1="215.55" y1="52.3431" x2="226.157" y2="62.9497" stroke="#9B3636"/>
<line x1="225.96" y1="52.3536" x2="215.354" y2="62.9602" stroke="#9B3636"/>
<line x1="295.55" y1="385.343" x2="306.157" y2="395.95" stroke="#9B3636"/>
<line x1="305.96" y1="385.354" x2="295.354" y2="395.96" stroke="#9B3636"/>
<line x1="295.55" y1="385.343" x2="306.157" y2="395.95" stroke="#9B3636"/>
<line x1="305.96" y1="385.354" x2="295.354" y2="395.96" stroke="#9B3636"/>
<line x1="395.55" y1="421.343" x2="406.157" y2="431.95" stroke="#9B3636"/>
<line x1="405.96" y1="421.354" x2="395.354" y2="431.96" stroke="#9B3636"/>
<line x1="395.55" y1="421.343" x2="406.157" y2="431.95" stroke="#9B3636"/>
<line x1="405.96" y1="421.354" x2="395.354" y2="431.96" stroke="#9B3636"/>
<line x1="395.55" y1="483.343" x2="406.157" y2="493.95" stroke="#9B3636"/>
<line x1="405.96" y1="483.354" x2="395.354" y2="493.96" stroke="#9B3636"/>
<line x1="395.55" y1="483.343" x2="406.157" y2="493.95" stroke="#9B3636"/>
<line x1="405.96" y1="483.354" x2="395.354" y2="493.96" stroke="#9B3636"/>
<line x1="315.55" y1="392.343" x2="326.157" y2="402.95" stroke="#3E9B36"/>
<line x1="325.96" y1="392.354" x2="315.354" y2="402.96" stroke="#3E9B36"/>
<line x1="315.55" y1="392.343" x2="326.157" y2="402.95" stroke="#3E9B36"/>
<line x1="325.96" y1="392.354" x2="315.354" y2="402.96" stroke="#3E9B36"/>
<line x1="120.55" y1="392.343" x2="131.157" y2="402.95" stroke="#3E9B36"/>
<line x1="130.96" y1="392.354" x2="120.354" y2="402.96" stroke="#3E9B36"/>
<line x1="120.55" y1="392.343" x2="131.157" y2="402.95" stroke="#3E9B36"/>
<line x1="130.96" y1="392.354" x2="120.354" y2="402.96" stroke="#3E9B36"/>
<line x1="83.5502" y1="155.343" x2="94.1568" y2="165.95" stroke="#3E9B36"/>
<line x1="93.9602" y1="155.354" x2="83.3535" y2="165.96" stroke="#3E9B36"/>
<line x1="83.5502" y1="155.343" x2="94.1568" y2="165.95" stroke="#3E9B36"/>
<line x1="93.9602" y1="155.354" x2="83.3535" y2="165.96" stroke="#3E9B36"/>
<line x1="182.55" y1="492.343" x2="193.157" y2="502.95" stroke="#3E9B36"/>
<line x1="192.96" y1="492.354" x2="182.354" y2="502.96" stroke="#3E9B36"/>
<line x1="182.55" y1="492.343" x2="193.157" y2="502.95" stroke="#3E9B36"/>
<line x1="192.96" y1="492.354" x2="182.354" y2="502.96" stroke="#3E9B36"/>
<line x1="383.55" y1="492.343" x2="394.157" y2="502.95" stroke="#3E9B36"/>
<line x1="393.96" y1="492.354" x2="383.354" y2="502.96" stroke="#3E9B36"/>
<line x1="383.55" y1="492.343" x2="394.157" y2="502.95" stroke="#3E9B36"/>
<line x1="393.96" y1="492.354" x2="383.354" y2="502.96" stroke="#3E9B36"/>
</svg>
