<svg width="620" height="260" viewBox="0 0 620 260" fill="none" xmlns="http://www.w3.org/2000/svg">
  <style>
    text {
      font-family: Arial, sans-serif;
    }
  </style>
  <text x="13.0" y="20" fill="#444" font-size="12px">0</text>
  <text x="13.0" y="40" fill="#000">(</text>
  <path d="M43.78633137108105 77.67949705662156L21.547001962252292 44.320502943378436M22.48148730110398 49.232400453656034L21.547001962252292 44.320502943378436L25.721643764488658 47.07229614473292" stroke="#000" />
  <text x="46.333333333333336" y="20" fill="#444" font-size="12px">1</text>
  <text x="46.333333333333336" y="90" fill="#000">(</text>
  <path d="M77.11966470441438 127.67949705662156L54.880335295585624 94.32050294337844M55.81482063443731 99.23240045365604L54.880335295585624 94.32050294337844L59.05497709782199 97.07229614473292" stroke="#000" />
  <text x="79.66666666666667" y="20" fill="#444" font-size="12px">2</text>
  <text x="79.66666666666667" y="140" fill="#000">(</text>
  <path d="M106.0 136.0L92.66666666666667 136.0M97.2719716366811 137.94709171154327L92.66666666666667 136.0L97.2719716366811 134.05290828845673" stroke="#000" />
  <text x="113.0" y="20" fill="#444" font-size="12px">3</text>
  <text x="113.0" y="140" fill="#000">)</text>
  <path d="M140.38906142333417 131.52786404500043L58.277605243332495 90.47213595499957M61.52594934627302 94.2732227191884L58.277605243332495 90.47213595499957L63.267481116447875 90.7901591788387" stroke="#000" />
  <text x="146.33333333333334" y="20" fill="#444" font-size="12px">4</text>
  <text x="146.33333333333334" y="140" fill="#000">(</text>
  <path d="M177.1196647044144 177.67949705662156L154.88033529558564 144.32050294337844M155.81482063443732 149.23240045365603L154.88033529558564 144.32050294337844L159.054977097822 147.07229614473292" stroke="#000" />
  <text x="179.66666666666669" y="20" fill="#444" font-size="12px">5</text>
  <text x="179.66666666666669" y="190" fill="#000">(</text>
  <path d="M210.4529980377477 227.67949705662156L188.21366862891898 194.32050294337844M189.14815396777067 199.23240045365603L188.21366862891898 194.32050294337844L192.38831043115533 197.07229614473292" stroke="#000" />
  <text x="213.0" y="20" fill="#444" font-size="12px">6</text>
  <text x="213.0" y="240" fill="#000">(</text>
  <path d="M239.33333333333334 236.0L226.0 236.0M230.60530497001443 237.94709171154327L226.0 236.0L230.60530497001443 234.05290828845673" stroke="#000" />
  <text x="246.33333333333334" y="20" fill="#444" font-size="12px">7</text>
  <text x="246.33333333333334" y="240" fill="#000">)</text>
  <path d="M272.6666666666667 186.0L192.66666666666669 186.0M197.27197163668112 187.94709171154327L192.66666666666669 186.0L197.27197163668112 184.05290828845673" stroke="#000" />
  <text x="279.6666666666667" y="20" fill="#444" font-size="12px">8</text>
  <text x="279.6666666666667" y="190" fill="#000">)</text>
  <path d="M306.42173714778846 183.12652114433655L158.91159618554485 138.87347885566345M162.76318565096855 142.06177912223765L158.91159618554485 138.87347885566345L163.8821710236 138.33182788013292" stroke="#000" />
  <text x="313.0" y="20" fill="#444" font-size="12px">9</text>
  <text x="313.0" y="190" fill="#000">(</text>
  <path d="M343.7863313710811 227.67949705662156L321.5470019622523 194.32050294337844M322.481487301104 199.23240045365603L321.5470019622523 194.32050294337844L325.72164376448865 197.07229614473292" stroke="#000" />
  <text x="346.33333333333337" y="20" fill="#444" font-size="12px">10</text>
  <text x="346.33333333333337" y="240" fill="#000">(</text>
  <path d="M372.6666666666667 236.0L359.33333333333337 236.0M363.9386383033478 237.94709171154327L359.33333333333337 236.0L363.9386383033478 234.05290828845673" stroke="#000" />
  <text x="379.6666666666667" y="20" fill="#444" font-size="12px">11</text>
  <text x="379.6666666666667" y="240" fill="#000">)</text>
  <path d="M407.05572809000085 231.52786404500043L324.94427190999915 190.47213595499957M328.19261601293965 194.2732227191884L324.94427190999915 190.47213595499957L329.9341477831145 190.7901591788387" stroke="#000" />
  <text x="413.0" y="20" fill="#444" font-size="12px">12</text>
  <text x="413.0" y="240" fill="#000">(</text>
  <path d="M439.33333333333337 236.0L426.0 236.0M430.6053049700144 237.94709171154327L426.0 236.0L430.6053049700144 234.05290828845673" stroke="#000" />
  <text x="446.33333333333337" y="20" fill="#444" font-size="12px">13</text>
  <text x="446.33333333333337" y="240" fill="#000">)</text>
  <path d="M472.6666666666667 186.0L326.0 186.0M330.6053049700144 187.94709171154327L326.0 186.0L330.6053049700144 184.05290828845673" stroke="#000" />
  <text x="479.6666666666667" y="20" fill="#444" font-size="12px">14</text>
  <text x="479.6666666666667" y="190" fill="#000">)</text>
  <path d="M506.00000000000006 136.0L159.33333333333334 136.0M163.93863830334777 137.94709171154327L159.33333333333334 136.0L163.93863830334777 134.05290828845673" stroke="#000" />
  <text x="513.0" y="20" fill="#444" font-size="12px">15</text>
  <text x="513.0" y="140" fill="#000">)</text>
  <path d="M539.3333333333334 86.0L59.333333333333336 86.0M63.93863830334776 87.94709171154325L59.333333333333336 86.0L63.93863830334776 84.05290828845675" stroke="#000" />
  <text x="546.3333333333334" y="20" fill="#444" font-size="12px">16</text>
  <text x="546.3333333333334" y="90" fill="#000">)</text>
  <path d="M572.6666666666667 36.0L26.0 36.0M30.605304970014426 37.94709171154325L26.0 36.0L30.605304970014426 34.05290828845675" stroke="#000" />
  <text x="579.6666666666667" y="20" fill="#444" font-size="12px">17</text>
  <text x="579.6666666666667" y="40" fill="#000">)</text>
</svg>
